<svg width="872" height="400" viewBox="0 0 872 400" fill="none" xmlns="http://www.w3.org/2000/svg">
<path fill-rule="evenodd" clip-rule="evenodd" d="M276.284 184.847C276.091 186.393 275.414 187.843 274.254 189.197C273.288 190.356 271.935 191.13 270.195 191.516C270.002 191.516 268.359 191.806 265.266 192.386C262.427 192.741 258.53 193.34 253.575 194.183C253.253 190.55 253.277 186.745 253.643 182.768C258.734 181.827 262.705 181.167 265.555 180.788L270.195 179.917C273.868 179.531 275.897 181.174 276.284 184.847ZM339.543 124.463C339.094 124.936 338.731 125.539 338.456 126.273C337.296 129.56 335.363 133.715 332.656 138.742C329.95 143.768 326.857 149.084 323.378 154.69C319.898 160.296 316.225 165.902 312.359 171.509C308.493 177.114 304.723 182.237 301.05 186.877C297.377 191.323 293.994 194.996 290.901 197.896C288.001 200.796 285.585 202.342 283.652 202.535C279.206 202.922 277.176 201.182 277.562 197.316C278.143 193.256 279.979 187.94 283.072 181.367C286.358 174.602 290.321 166.966 294.96 158.46C299.794 149.954 304.24 141.351 308.299 132.653C312.552 123.953 315.839 115.641 318.159 107.715C320.478 99.5958 320.768 92.733 319.028 87.1274C317.288 81.3282 314.292 77.4613 310.039 75.5283C305.98 73.5953 302.017 72.7258 298.151 72.9185C294.284 73.112 290.998 73.9822 288.291 75.5283C285.778 77.0752 285.198 78.4279 286.552 79.5879C287.905 80.9413 288.098 83.4547 287.132 87.1274C286.358 90.8 284.812 95.3428 282.492 100.756C280.365 106.169 277.756 112.258 274.663 119.024C271.763 125.596 268.864 132.459 265.964 139.612C263.064 146.764 260.551 153.917 258.424 161.069C256.105 168.222 254.558 174.988 253.785 181.367C253.733 181.837 253.686 182.303 253.643 182.768L253.377 182.817C248.351 183.591 242.358 184.654 235.398 186.007C228.439 187.167 220.803 188.617 212.491 190.356C217.324 173.538 220.997 157.397 223.51 141.932C226.023 126.273 227.86 112.065 229.02 99.306C229.212 97.1795 228.149 95.6334 225.829 94.6668C223.703 93.5069 220.9 92.733 217.42 92.3469C214.134 91.96 210.364 91.96 206.112 92.3469C201.859 92.733 197.799 93.3134 193.933 94.0865C190.26 94.8595 186.973 95.8261 184.074 96.986C181.368 97.9526 179.627 99.1125 178.854 100.466C166.869 119.991 154.593 137.485 142.029 152.95C129.463 168.415 116.897 181.077 104.333 190.936C93.7001 199.442 84.2276 204.275 75.915 205.435C67.6028 206.595 61.1267 204.662 56.4873 199.636C51.8477 194.61 49.3347 186.78 48.948 176.148C48.5614 165.322 50.9779 152.274 56.1973 137.002C59.8703 126.563 64.1231 116.027 68.956 105.396C73.7887 94.7632 78.9117 84.711 84.3247 75.2385C89.7369 65.5733 95.3434 56.6803 101.142 48.5614C107.135 40.4422 113.031 33.6763 118.83 28.2635C124.824 22.6574 130.527 18.6945 135.939 16.3748C141.545 14.055 146.765 13.8616 151.597 15.7949C154.884 17.148 157.686 19.5644 160.006 23.0441C162.326 26.5237 163.68 30.5833 164.066 35.2227C164.646 39.8623 163.97 44.8884 162.037 50.3012C160.296 55.7138 157.01 60.837 152.177 65.6696C151.211 66.6361 151.308 67.7961 152.468 69.1496C153.627 70.3088 155.367 71.4687 157.686 72.6287C160.2 73.7887 163.003 74.8516 166.096 75.8189C169.382 76.7854 172.475 77.4613 175.375 77.8483C178.468 78.0417 181.271 77.9446 183.784 77.5585C186.297 77.1715 188.133 76.1087 189.293 74.3683C193.353 67.9896 195.383 61.2231 195.383 54.0706C195.576 46.9182 194.03 40.0556 190.743 33.4829C187.457 26.717 182.624 20.6276 176.245 15.2149C169.866 9.6088 162.229 5.35595 153.337 2.45623C146.184 0.136418 138.838 -0.540148 131.3 0.426455C123.76 1.39298 116.318 3.51948 108.972 6.80582C101.626 9.89875 94.4732 13.9583 87.5141 18.9845C80.7484 23.8173 74.562 29.0368 68.956 34.6428C56.3906 47.2082 45.0818 61.4166 35.0295 77.2687C29.4235 86.1608 24.3007 95.3428 19.6611 104.815C15.215 114.288 11.1553 124.244 7.48238 134.682C2.8429 148.214 0.6198 161.069 0.813112 173.248C1.00642 179.048 1.77967 184.46 3.13287 189.486C4.48605 194.512 6.32253 199.249 8.64229 203.695C16.7614 216.84 28.5535 224.283 44.0186 226.023H46.6283C47.5949 226.216 48.5614 226.313 49.528 226.313C58.807 226.313 68.5694 223.993 78.8153 219.354C89.061 214.907 99.6927 208.334 110.711 199.636C123.664 189.39 136.422 176.631 148.988 161.359C153.241 156.333 157.494 151.017 161.746 145.411C165.999 139.612 170.156 133.619 174.215 127.433C172.282 138.452 169.769 150.63 166.676 163.969C163.776 177.114 160.006 190.646 155.367 204.565C138.549 209.398 123.181 214.52 109.262 219.933C95.3434 225.346 82.8749 230.952 71.8556 236.751C42.4721 252.216 23.2374 269.518 14.1517 288.656C9.12555 298.901 6.90247 308.664 7.48238 317.943C7.86907 326.835 10.4788 334.471 15.3116 340.85C20.9177 348.003 28.2636 352.836 37.3493 355.349C41.6021 356.703 46.7249 357.378 52.7177 357.378C57.5504 357.378 62.4799 356.799 67.5061 355.639C94.5703 349.646 118.638 337.274 139.709 318.523C158.267 302.284 174.312 280.924 187.844 254.44C192.097 246.127 195.963 237.621 199.443 228.923C202.922 220.223 206.015 211.427 208.721 202.535C217.42 200.602 225.443 198.959 232.788 197.605C240.328 196.253 246.804 195.189 252.217 194.416L253.575 194.183C253.633 194.847 253.704 195.504 253.785 196.156C254.365 200.602 255.525 204.468 257.265 207.755C259.005 210.848 261.324 213.264 264.224 215.004C266.93 216.744 270.217 217.517 274.083 217.324C278.722 217.324 283.555 215.584 288.582 212.104C293.608 208.625 298.537 204.178 303.37 198.765C308.396 193.352 313.229 187.36 317.868 180.788C321.176 176.101 324.287 171.465 327.202 166.877C326.767 171.111 326.601 175.264 326.702 179.338C327.089 189.583 330.086 198.282 335.692 205.435C341.105 212.587 348.643 216.647 358.309 217.613C365.655 218.194 372.518 216.453 378.897 212.394C385.47 208.334 391.462 203.212 396.875 197.026C402.288 190.646 407.024 183.784 411.083 176.438C415.337 169.092 418.816 162.423 421.523 156.43C426.936 156.623 432.251 156.14 437.471 154.981C442.884 153.821 447.717 152.177 451.97 150.051C453.074 149.523 454.142 148.965 455.175 148.377C454.658 149.898 454.151 151.423 453.654 152.95C450.948 161.069 448.917 169.092 447.565 177.018C446.211 184.75 446.211 191.613 447.565 197.605C448.724 203.598 451.624 208.528 456.263 212.394C460.903 216.067 467.863 217.903 477.142 217.903C486.42 217.903 495.313 215.487 503.818 210.654C512.324 205.822 520.153 199.538 527.306 191.806C534.652 183.881 541.224 175.085 547.024 165.419C552.823 155.56 557.56 145.798 561.232 136.132C564.906 126.467 567.418 117.284 568.772 108.585C570.318 99.8856 570.415 92.733 569.062 87.1274C567.515 81.3282 564.906 77.4613 561.232 75.5283C557.56 73.5953 553.886 72.7258 550.214 72.9185C546.541 73.112 543.448 73.9822 540.934 75.5283C538.422 77.0752 537.552 78.4279 538.325 79.5879C539.098 80.7478 539.098 84.711 538.325 91.4767C537.552 98.2431 536.005 106.362 533.686 115.834C531.366 125.113 528.466 135.069 524.986 145.701C521.507 156.14 517.447 165.902 512.807 174.988C508.361 183.881 503.432 191.323 498.019 197.316C492.799 203.115 487.29 206.015 481.491 206.015C475.498 206.015 472.212 203.889 471.631 199.636C471.245 195.383 472.308 189.776 474.822 182.817C477.528 175.858 481.104 168.029 485.55 159.33C490.19 150.63 494.54 141.932 498.599 133.232C502.659 124.34 505.848 115.834 508.168 107.715C510.487 99.5958 510.778 92.733 509.038 87.1274C507.298 81.3282 504.301 77.4613 500.049 75.5283C495.99 73.5953 492.026 72.7258 488.16 72.9185C484.294 73.112 481.008 73.9822 478.301 75.5283C475.788 77.0752 475.208 78.4279 476.561 79.5879C478.108 80.9413 478.204 84.0343 476.851 88.8669C475.691 93.5069 473.855 99.2097 471.342 105.975C469.173 111.648 466.716 117.969 463.971 124.937C463.041 125.243 462.328 125.978 461.828 127.143C461.442 127.723 460.765 129.173 459.799 131.493C459.025 133.619 457.285 135.842 454.579 138.162C452.066 140.482 448.49 142.608 443.85 144.541C439.211 146.474 433.025 147.537 425.292 147.731C427.612 139.999 428.675 134.102 428.482 130.043C428.288 125.983 427.419 123.084 425.872 121.343C424.326 119.41 422.489 118.347 420.363 118.154C418.236 117.961 416.497 117.864 415.143 117.864C411.277 117.864 408.088 119.41 405.574 122.503C403.062 125.596 401.515 129.173 400.935 133.232C400.355 137.292 400.838 141.351 402.385 145.411C403.931 149.278 406.734 152.08 410.794 153.821C408.281 158.847 405.284 164.356 401.804 170.349C398.519 176.148 395.039 181.561 391.366 186.587C387.886 191.613 384.31 195.769 380.637 199.055C377.157 202.148 373.968 203.405 371.068 202.825C367.009 202.052 364.108 199.829 362.369 196.156C360.629 192.29 359.759 187.457 359.759 181.657C359.953 175.858 360.919 169.478 362.659 162.519C364.399 155.367 366.718 148.214 369.618 141.061C372.518 133.715 375.804 126.66 379.477 119.894C383.343 112.934 387.307 106.846 391.366 101.626C393.685 98.7264 396.005 95.9232 398.325 93.2163C400.838 90.3167 403.254 88.0939 405.574 86.5477C407.894 84.8074 410.021 83.938 411.954 83.938C414.08 83.938 415.917 85.2906 417.463 87.9975C416.11 88.9641 414.95 90.124 413.984 91.4767C413.21 92.8301 412.824 94.2799 412.824 95.8261C412.824 98.3395 413.693 100.369 415.434 101.916C417.367 103.462 419.493 104.236 421.812 104.236C425.099 104.236 427.515 102.786 429.062 99.8856C430.222 98.5329 430.802 96.3093 430.802 93.2163C430.415 91.0906 429.835 88.8669 429.062 86.5477C428.289 84.0343 427.129 81.8115 425.582 79.8784C424.036 77.7519 422.006 76.0116 419.493 74.6589C417.173 73.112 414.177 72.2426 410.504 72.0491C402.385 71.6622 394.556 72.9185 387.016 75.8189C379.671 78.7184 372.808 82.8743 366.428 88.2873C360.242 93.7003 354.637 100.079 349.611 107.425C345.813 112.829 342.457 118.509 339.543 124.463ZM339.543 124.463C340.04 123.94 340.644 123.577 341.356 123.374C342.709 122.987 343.966 122.987 345.126 123.374C346.286 123.76 347.155 124.533 347.735 125.693C348.508 126.853 348.508 128.11 347.735 129.463C346.188 132.749 343.966 137.292 341.066 143.092C338.167 148.697 334.687 154.787 330.627 161.359C329.517 163.191 328.376 165.03 327.202 166.877C327.592 163.073 328.199 159.204 329.022 155.27C330.762 146.764 333.372 138.452 336.852 130.333C337.702 128.347 338.6 126.391 339.543 124.463ZM25.1705 333.021C27.297 335.728 30.6799 337.178 35.3195 337.371C40.1523 337.564 45.6617 336.695 51.8477 334.762C58.2271 332.828 64.993 329.832 72.1456 325.772C79.2986 321.713 86.3541 316.783 93.3132 310.984C100.659 304.798 107.426 297.548 113.612 289.236C119.99 280.924 125.597 272.418 130.43 263.719C135.456 255.02 139.612 246.611 142.898 238.492C146.378 230.372 148.891 223.413 150.437 217.613C115.641 228.052 87.6112 239.554 66.3462 252.12C45.2751 264.686 31.3566 278.12 24.5906 292.426C20.7244 300.545 18.7912 308.084 18.7912 315.043C18.9846 322.003 21.111 327.995 25.1705 333.021ZM326.857 58.1301C326.857 59.677 325.311 60.4501 322.218 60.4501C319.125 60.4501 315.741 59.7734 312.069 58.4207C308.589 56.8738 305.303 54.5538 302.21 51.461C299.117 48.1748 297.57 44.1151 297.57 39.2824C297.57 37.9292 298.151 36.1893 299.311 34.0629C300.47 31.7431 301.727 29.3267 303.08 26.8137C304.626 24.3006 305.98 21.9808 307.139 19.8544C308.299 17.728 308.879 16.0848 308.879 14.9249C308.879 13.5717 310.329 12.8951 313.229 12.8951C316.128 12.8951 319.318 13.6683 322.798 15.2149C326.47 16.7614 329.757 19.0811 332.656 22.1741C335.557 25.2672 337.007 29.2301 337.007 34.0629C337.007 35.2227 336.426 36.8659 335.266 38.9923C334.3 41.1188 333.14 43.3419 331.787 45.6617L328.307 52.6209C327.341 54.9407 326.857 56.7774 326.857 58.1301ZM639.763 58.1301C639.763 59.677 638.217 60.4501 635.124 60.4501C632.031 60.4501 628.648 59.7734 624.975 58.4207C621.495 56.8738 618.209 54.5538 615.116 51.461C612.023 48.1748 610.476 44.1151 610.476 39.2824C610.476 37.9292 611.057 36.1893 612.216 34.0629C613.376 31.7431 614.633 29.3267 615.986 26.8137C617.533 24.3006 618.885 21.9808 620.045 19.8544C621.205 17.728 621.786 16.0848 621.786 14.9249C621.786 13.5717 623.235 12.8951 626.135 12.8951C629.035 12.8951 632.224 13.6683 635.704 15.2149C639.376 16.7614 642.663 19.0811 645.563 22.1741C648.462 25.2672 649.913 29.2301 649.913 34.0629C649.913 35.2227 649.332 36.8659 648.172 38.9923C647.206 41.1188 646.046 43.3419 644.693 45.6617L641.213 52.6209C640.247 54.9407 639.763 56.7774 639.763 58.1301ZM660.641 129.463C661.415 128.11 661.415 126.853 660.641 125.693C660.061 124.533 659.192 123.76 658.032 123.374C656.872 122.987 655.615 122.987 654.262 123.374C652.909 123.76 651.942 124.727 651.362 126.273C650.202 129.56 648.269 133.715 645.563 138.742C642.856 143.768 639.763 149.084 636.283 154.69C632.804 160.296 629.131 165.902 625.265 171.509C621.399 177.114 617.629 182.237 613.956 186.877C610.283 191.323 606.9 194.996 603.807 197.896C600.907 200.796 598.491 202.342 596.558 202.535C592.112 202.922 590.082 201.182 590.468 197.316C591.049 193.256 592.885 187.94 595.978 181.367C599.264 174.602 603.227 166.966 607.867 158.46C612.7 149.954 617.146 141.351 621.205 132.653C625.458 123.953 628.745 115.641 631.065 107.715C633.384 99.5958 633.674 92.733 631.934 87.1274C630.195 81.3282 627.198 77.4613 622.945 75.5283C618.885 73.5953 614.923 72.7258 611.057 72.9185C607.19 73.112 603.904 73.9822 601.197 75.5283C598.685 77.0752 598.104 78.4279 599.458 79.5879C600.811 80.9413 601.004 83.4547 600.037 87.1274C599.264 90.8 597.718 95.3428 595.398 100.756C593.272 106.169 590.662 112.258 587.569 119.024C584.669 125.596 581.77 132.459 578.87 139.612C575.97 146.764 573.457 153.917 571.331 161.069C569.011 168.222 567.464 174.988 566.691 181.367C566.111 186.587 566.111 191.516 566.691 196.156C567.271 200.602 568.431 204.468 570.171 207.755C571.91 210.848 574.23 213.264 577.13 215.004C579.837 216.744 583.122 217.517 586.989 217.324C591.628 217.324 596.461 215.584 601.487 212.104C606.514 208.625 611.443 204.178 616.275 198.765C621.302 193.352 626.135 187.36 630.774 180.788C635.414 174.215 639.667 167.739 643.533 161.359C647.593 154.787 651.072 148.697 653.972 143.092C656.872 137.292 659.095 132.749 660.641 129.463ZM670.635 40.1522C670.055 38.9924 670.926 38.0258 673.245 37.2526C675.758 36.286 678.658 35.8994 681.944 36.0927C685.231 36.0927 688.324 36.7693 691.223 38.1225C694.123 39.4757 695.863 41.7954 696.443 45.0817C697.603 52.4276 697.023 59.5799 694.703 66.5398C692.577 73.3054 689.58 79.2017 685.714 84.2278C682.041 89.2539 677.885 92.9265 673.245 95.2465C668.799 97.5664 664.642 97.7599 660.776 95.8261C658.843 94.8595 658.94 92.8301 661.066 89.7371C663.386 86.4506 665.802 82.3911 668.316 77.5585C671.022 72.5324 672.955 66.9259 674.115 60.7399C675.468 54.3611 674.308 47.4981 670.635 40.1522ZM739.808 211.234L739.518 211.524C735.265 213.651 731.205 215.293 727.339 216.453C723.472 217.613 720.187 218.194 717.48 218.194C709.748 218.194 703.851 216.261 699.792 212.394C695.539 208.334 692.736 203.598 691.383 198.186C690.03 192.773 689.836 187.36 690.803 181.948C691.769 176.535 693.606 172.379 696.312 169.478C700.179 165.419 703.658 162.713 706.751 161.359C709.844 160.007 712.454 159.523 714.58 159.909C716.707 160.103 718.64 160.973 720.379 162.519C722.313 164.066 723.28 165.999 723.28 168.318C723.28 170.832 722.313 172.958 720.379 174.698C718.64 176.438 716.61 177.308 714.29 177.308C712.551 177.308 710.908 176.824 709.361 175.858C707.815 174.698 706.751 173.248 706.171 171.509C703.658 174.408 701.918 177.888 700.952 181.948C699.985 186.007 699.792 189.873 700.371 193.546C700.952 197.219 702.498 200.409 705.011 203.115C707.331 205.628 710.617 206.982 714.87 207.174C716.417 207.174 718.64 206.498 721.539 205.145C724.439 203.598 727.339 201.182 730.239 197.896C733.332 194.416 736.038 190.067 738.358 184.847C740.678 179.434 742.031 172.958 742.418 165.419C742.997 157.88 742.224 149.084 740.098 139.032C737.971 128.979 733.912 117.671 727.919 105.105C725.986 108.779 723.763 112.838 721.25 117.284C718.93 121.537 716.803 125.596 714.87 129.463C713.904 130.816 712.744 131.589 711.391 131.782C710.037 131.976 708.781 131.88 707.621 131.493C706.461 130.913 705.688 130.139 705.301 129.173C704.722 128.013 704.818 126.756 705.591 125.403C707.138 122.117 708.588 119.218 709.941 116.704C711.294 113.998 712.647 111.485 714.001 109.165C715.353 106.845 716.61 104.526 717.77 102.206C718.93 99.6929 720.187 97.0832 721.539 94.3763C719.413 91.2832 717.77 87.9004 716.61 84.2278C715.45 80.5544 714.87 76.6883 714.87 72.6287C714.87 70.8891 715.16 68.7626 715.74 66.2492C716.513 63.5431 717.673 60.9333 719.22 58.4207C720.96 55.7138 723.28 53.491 726.179 51.7511C729.079 49.8179 732.849 48.8513 737.488 48.8513C742.32 48.8513 745.8 49.9146 747.927 52.041C750.247 54.1677 751.503 56.8738 751.697 60.1603C751.89 63.4468 751.213 67.1194 749.666 71.1789C748.12 75.045 746.09 78.9111 743.578 82.778L742.707 84.5176C750.247 93.2163 756.239 101.529 760.685 109.455C765.325 117.381 768.804 124.92 771.123 132.072C773.443 139.225 774.7 145.894 774.892 152.08C775.278 158.266 774.8 164.066 773.443 169.478C779.825 162.133 785.529 154.883 790.554 147.731C795.579 140.578 799.734 133.813 803.025 127.433C803.603 126.08 804.474 125.21 805.63 124.823C806.794 124.244 808.243 124.436 809.977 125.403C811.334 126.177 812.104 127.24 812.297 128.593C812.69 129.946 812.59 131.203 812.012 132.363C807.372 141.835 801.961 150.727 795.772 159.04C789.776 167.352 783.109 175.664 775.763 183.977C770.545 189.776 765.035 194.996 759.235 199.636C753.63 204.275 747.25 208.142 740.098 211.234H739.808ZM864.893 143.515C866.157 144.505 866.966 145.955 867.159 147.546L871.229 181.476C871.63 184.789 869.263 187.796 865.949 188.193C862.643 188.591 859.629 186.227 859.236 182.914L856.962 163.964C815.28 222.674 767.74 247.905 715.022 256.856C669.332 264.615 619.724 260.093 567.481 255.332L567.465 255.331H567.465H567.464C558.495 254.513 549.448 253.689 540.33 252.918C477.725 247.628 410.936 244.732 339.859 262.692C289.288 275.472 236.349 298.866 181.177 339.771L188.746 348.73C190.9 351.278 190.579 355.089 188.03 357.243C185.482 359.396 181.67 359.076 179.517 356.527L171.535 347.08C168.544 349.399 165.547 351.77 162.542 354.194L169.679 362.641C171.833 365.189 171.512 369.001 168.963 371.154C166.415 373.308 162.603 372.987 160.45 370.438L153.214 361.874C140.045 372.938 126.752 385.036 113.339 398.261C110.963 400.603 107.138 400.576 104.795 398.201C102.453 395.824 102.481 392 104.856 389.658C118.484 376.221 132.006 363.913 145.417 352.645L137.058 342.751C134.905 340.203 135.225 336.392 137.773 334.238C140.322 332.085 144.133 332.405 146.287 334.954L154.743 344.962C157.744 342.538 160.741 340.165 163.731 337.844L156.125 328.84C153.971 326.292 154.292 322.48 156.84 320.327C159.389 318.173 163.2 318.494 165.354 321.043L173.364 330.523C229.954 288.449 284.521 264.215 336.899 250.978C410.011 232.503 478.468 235.565 541.348 240.879C550.657 241.666 559.826 242.499 568.86 243.319H568.862C621.208 248.075 668.996 252.417 712.999 244.945C762.869 236.477 807.834 212.772 847.829 155.949L827.951 158.333C824.644 158.73 821.631 156.366 821.238 153.054C820.837 149.742 823.203 146.733 826.517 146.337L860.446 142.267C862.034 142.076 863.637 142.525 864.893 143.515Z" fill="url(#paint0_linear)"/>
<defs>
<linearGradient id="paint0_linear" x1="451.692" y1="416.206" x2="432.423" y2="-84.7827" gradientUnits="userSpaceOnUse">
<stop stop-color="#FF0173"/>
<stop offset="1" stop-color="#FF692E"/>
</linearGradient>
</defs>
</svg>
