<svg width="331" height="331" viewBox="0 0 331 331" fill="none" xmlns="http://www.w3.org/2000/svg">
<path d="M331 165.5C331 74.097 256.903 0 165.5 0C74.097 0 0 74.097 0 165.5C0 256.903 74.097 331 165.5 331C256.903 331 331 256.903 331 165.5Z" fill="white"/>
<path d="M168.36 178.872C167.089 181.573 165.262 185.307 162.878 190.073C160.495 194.681 157.635 199.686 154.299 205.088C151.121 210.331 147.626 215.653 143.813 221.055C140 226.457 136.028 231.382 131.897 235.831C127.925 240.28 123.873 243.934 119.743 246.794C115.612 249.653 111.64 251.083 107.827 251.083C104.649 251.242 101.948 250.607 99.7236 249.177C97.3404 247.747 95.4339 245.761 94.0039 243.219C92.574 240.518 91.6207 237.34 91.1441 233.686C90.6675 229.873 90.6675 225.821 91.1441 221.532C91.7796 216.289 93.7656 208.901 97.1021 199.368C100.439 189.835 104.411 179.428 109.018 168.148C113.626 156.709 118.471 145.11 123.556 133.353C128.64 121.437 133.168 110.554 137.14 100.703C141.271 90.694 144.448 82.3528 146.673 75.6799C148.897 69.0069 149.453 65.1143 148.341 64.0022C147.229 63.0489 147.705 61.9367 149.771 60.6657C151.995 59.3946 154.696 58.6797 157.874 58.5208C161.051 58.3619 164.308 59.0769 167.645 60.6657C171.14 62.2545 173.603 65.4321 175.033 70.1985C176.145 73.6939 175.827 78.8575 174.079 85.6893C172.332 92.3623 169.71 99.9885 166.215 108.568C162.878 117.148 158.906 126.442 154.299 136.451C149.691 146.302 145.004 156.073 140.238 165.765C135.631 175.457 131.182 184.83 126.892 193.887C122.761 202.784 119.345 210.648 116.644 217.48C114.102 224.153 112.593 229.476 112.116 233.448C111.799 237.42 112.99 239.247 115.691 238.929C117.28 238.77 119.266 237.499 121.649 235.116C124.191 232.733 126.972 229.714 129.99 226.06C133.009 222.247 136.107 218.036 139.285 213.429C142.462 208.821 145.481 204.214 148.341 199.606C151.201 194.999 153.743 190.63 155.967 186.499C158.191 182.368 159.78 178.952 160.734 176.251C161.21 174.98 162.005 174.185 163.117 173.868C164.229 173.55 165.262 173.55 166.215 173.868C167.168 174.185 167.883 174.821 168.36 175.774C168.995 176.728 168.995 177.76 168.36 178.872ZM236.631 149.082C236.631 151.624 236.155 153.452 235.201 154.564C233.93 156.947 231.944 158.139 229.243 158.139C227.337 158.139 225.589 157.503 224 156.232C222.57 154.961 221.855 153.293 221.855 151.227C221.855 149.956 222.173 148.765 222.809 147.653C223.603 146.54 224.556 145.587 225.668 144.793C224.397 142.568 222.888 141.456 221.14 141.456C219.552 141.456 217.804 142.171 215.897 143.601C213.991 144.872 212.005 146.699 209.939 149.082C208.033 151.307 206.126 153.61 204.22 155.994C200.883 160.283 197.626 165.288 194.449 171.008C191.43 176.569 188.729 182.368 186.346 188.405C183.962 194.284 182.056 200.162 180.626 206.041C179.196 211.761 178.402 217.004 178.243 221.77C178.243 226.536 178.958 230.508 180.388 233.686C181.818 236.705 184.201 238.532 187.537 239.167C189.92 239.644 192.542 238.611 195.402 236.069C198.421 233.368 201.36 229.952 204.22 225.821C207.238 221.691 210.098 217.242 212.799 212.476C215.659 207.55 218.122 203.022 220.187 198.891C216.851 197.461 214.547 195.158 213.276 191.98C212.005 188.644 211.608 185.307 212.084 181.971C212.561 178.634 213.832 175.695 215.897 173.153C217.963 170.611 220.584 169.34 223.762 169.34C224.874 169.34 226.304 169.419 228.052 169.578C229.799 169.737 231.309 170.611 232.58 172.199C233.851 173.629 234.566 176.013 234.725 179.349C234.884 182.686 234.01 187.531 232.103 193.887C238.458 193.728 243.542 192.854 247.356 191.265C251.169 189.676 254.108 187.929 256.173 186.022C258.398 184.115 259.828 182.288 260.463 180.541C261.258 178.634 261.814 177.443 262.131 176.966C262.608 175.854 263.323 175.218 264.276 175.059C265.388 174.742 266.421 174.821 267.374 175.298C268.328 175.774 269.043 176.569 269.519 177.681C269.996 178.634 269.996 179.746 269.519 181.017C268.248 184.036 266.262 186.816 263.561 189.358C260.86 191.901 257.683 194.045 254.029 195.793C250.533 197.541 246.561 198.891 242.113 199.845C237.823 200.798 233.454 201.195 229.005 201.036C226.781 205.961 223.921 211.443 220.425 217.48C217.089 223.518 213.196 229.158 208.748 234.401C204.299 239.485 199.374 243.695 193.972 247.032C188.729 250.368 183.089 251.798 177.051 251.322C169.107 250.527 162.911 247.191 158.462 241.312C153.854 235.434 151.392 228.284 151.074 219.863C150.915 213.508 151.551 206.915 152.981 200.083C154.41 193.092 156.555 186.26 159.415 179.587C162.275 172.914 165.771 166.639 169.902 160.76C174.032 154.723 178.64 149.48 183.724 145.031C188.967 140.582 194.607 137.166 200.645 134.783C206.841 132.4 213.276 131.367 219.949 131.685C222.968 131.844 225.43 132.559 227.337 133.83C229.402 134.942 231.07 136.372 232.341 138.12C233.612 139.708 234.566 141.536 235.201 143.601C235.837 145.508 236.313 147.335 236.631 149.082Z" fill="url(#paint0_linear)"/>
<defs>
<linearGradient id="paint0_linear" x1="314.45" y1="69.51" x2="52.9599" y2="283.005" gradientUnits="userSpaceOnUse">
<stop stop-color="#228BE6"/>
<stop offset="1" stop-color="#3FB199"/>
</linearGradient>
</defs>
</svg>
