<svg width="871" height="400" viewBox="0 0 871 400" fill="none" xmlns="http://www.w3.org/2000/svg">
<path fill-rule="evenodd" clip-rule="evenodd" d="M275.483 184.847C275.289 186.393 274.613 187.843 273.453 189.197C272.486 190.356 271.133 191.13 269.393 191.516C269.2 191.516 267.557 191.806 264.464 192.386C261.625 192.741 257.729 193.34 252.773 194.183C252.452 190.55 252.475 186.745 252.841 182.768C257.933 181.827 261.904 181.167 264.754 180.788L269.393 179.917C273.067 179.531 275.096 181.174 275.483 184.847ZM338.742 124.463C338.292 124.936 337.93 125.539 337.655 126.273C336.495 129.56 334.562 133.715 331.855 138.742C329.149 143.768 326.056 149.084 322.577 154.69C319.097 160.296 315.424 165.902 311.557 171.509C307.691 177.114 303.921 182.237 300.249 186.877C296.575 191.323 293.192 194.996 290.099 197.896C287.2 200.796 284.784 202.342 282.85 202.535C278.404 202.922 276.375 201.182 276.761 197.316C277.341 193.256 279.177 187.94 282.27 181.367C285.557 174.602 289.52 166.966 294.159 158.46C298.992 149.954 303.438 141.351 307.498 132.653C311.751 123.953 315.037 115.641 317.357 107.715C319.676 99.5958 319.967 92.733 318.226 87.1274C316.487 81.3282 313.49 77.4614 309.238 75.5283C305.178 73.5953 301.215 72.7259 297.349 72.9185C293.482 73.112 290.197 73.9822 287.49 75.5283C284.977 77.0752 284.397 78.4279 285.75 79.5879C287.103 80.9413 287.297 83.4547 286.33 87.1274C285.557 90.8 284.01 95.3428 281.69 100.756C279.564 106.169 276.954 112.258 273.861 119.024C270.962 125.596 268.062 132.459 265.162 139.612C262.263 146.764 259.749 153.917 257.623 161.069C255.303 168.222 253.757 174.988 252.984 181.367C252.931 181.837 252.884 182.303 252.841 182.768L252.575 182.817C247.549 183.591 241.557 184.654 234.597 186.007C227.638 187.167 220.002 188.617 211.689 190.357C216.523 173.538 220.195 157.397 222.709 141.932C225.221 126.273 227.058 112.065 228.218 99.306C228.411 97.1795 227.348 95.6334 225.028 94.6669C222.901 93.5069 220.099 92.733 216.619 92.3469C213.332 91.96 209.563 91.96 205.31 92.3469C201.057 92.733 196.998 93.3134 193.131 94.0865C189.458 94.8595 186.172 95.8261 183.272 96.986C180.566 97.9526 178.826 99.1125 178.053 100.466C166.068 119.991 153.792 137.485 141.227 152.95C128.661 168.415 116.096 181.077 103.531 190.936C92.8986 199.442 83.4261 204.275 75.1135 205.435C66.8012 206.595 60.3252 204.662 55.6858 199.636C51.0462 194.61 48.5332 186.78 48.1465 176.148C47.7599 165.322 50.1763 152.274 55.3958 137.002C59.0687 126.563 63.3216 116.027 68.1545 105.396C72.9872 94.7632 78.1102 84.711 83.5232 75.2385C88.9354 65.5733 94.5418 56.6803 100.341 48.5614C106.334 40.4422 112.23 33.6763 118.029 28.2635C124.022 22.6574 129.725 18.6945 135.137 16.3748C140.744 14.055 145.963 13.8617 150.796 15.7949C154.082 17.148 156.885 19.5644 159.205 23.0441C161.525 26.5237 162.878 30.5833 163.264 35.2227C163.845 39.8623 163.168 44.8884 161.235 50.3012C159.495 55.7138 156.209 60.837 151.376 65.6696C150.409 66.6361 150.506 67.7961 151.666 69.1496C152.825 70.3088 154.566 71.4687 156.885 72.6287C159.398 73.7887 162.202 74.8516 165.295 75.8189C168.58 76.7854 171.673 77.4614 174.574 77.8483C177.667 78.0417 180.469 77.9446 182.983 77.5585C185.495 77.1716 187.332 76.1087 188.492 74.3683C192.551 67.9896 194.582 61.2231 194.582 54.0706C194.774 46.9182 193.228 40.0556 189.942 33.4829C186.655 26.717 181.823 20.6276 175.443 15.2149C169.064 9.6088 161.428 5.35595 152.536 2.45623C145.383 0.136418 138.037 -0.540148 130.498 0.426455C122.959 1.39298 115.516 3.51948 108.17 6.80582C100.824 9.89875 93.6717 13.9583 86.7125 18.9845C79.9469 23.8173 73.7605 29.0368 68.1545 34.6428C55.5891 47.2082 44.2802 61.4166 34.228 77.2687C28.622 86.1608 23.4991 95.3428 18.8596 104.815C14.4134 114.288 10.3538 124.244 6.68087 134.682C2.04138 148.214 -0.181714 161.069 0.0115987 173.248C0.204911 179.048 0.978161 184.46 2.33135 189.486C3.68454 194.512 5.52101 199.249 7.84078 203.695C15.9599 216.84 27.752 224.283 43.2171 226.023H45.8268C46.7934 226.216 47.7599 226.313 48.7265 226.313C58.0055 226.313 67.7678 223.993 78.0138 219.354C88.2594 214.907 98.8912 208.334 109.91 199.636C122.862 189.39 135.621 176.631 148.186 161.359C152.439 156.333 156.692 151.017 160.944 145.411C165.197 139.612 169.354 133.619 173.414 127.433C171.481 138.452 168.967 150.63 165.874 163.969C162.975 177.114 159.205 190.646 154.566 204.565C137.747 209.398 122.379 214.52 108.46 219.933C94.5418 225.346 82.0734 230.952 71.0541 236.751C41.6706 252.216 22.4359 269.518 13.3502 288.656C8.32404 298.902 6.10096 308.664 6.68087 317.943C7.06756 326.835 9.67725 334.471 14.5101 340.85C20.1162 348.003 27.462 352.836 36.5478 355.349C40.8006 356.703 45.9234 357.378 51.9162 357.378C56.7489 357.378 61.6784 356.799 66.7046 355.639C93.7688 349.646 117.836 337.274 138.907 318.523C157.465 302.284 173.51 280.924 187.042 254.44C191.295 246.127 195.161 237.621 198.641 228.923C202.12 220.223 205.213 211.427 207.919 202.535C216.619 200.602 224.642 198.959 231.987 197.605C239.526 196.253 246.002 195.189 251.415 194.416L252.773 194.183C252.832 194.847 252.902 195.504 252.984 196.156C253.563 200.602 254.723 204.468 256.463 207.755C258.203 210.848 260.523 213.264 263.422 215.004C266.129 216.744 269.415 217.517 273.282 217.324C277.921 217.324 282.753 215.584 287.78 212.104C292.806 208.625 297.735 204.178 302.569 198.765C307.595 193.352 312.427 187.36 317.066 180.788C320.375 176.101 323.485 171.465 326.4 166.877C325.966 171.111 325.799 175.264 325.901 179.338C326.288 189.583 329.284 198.282 334.89 205.435C340.303 212.587 347.842 216.647 357.508 217.613C364.854 218.194 371.717 216.453 378.095 212.394C384.668 208.334 390.661 203.212 396.074 197.026C401.486 190.646 406.222 183.784 410.282 176.438C414.535 169.092 418.015 162.423 420.721 156.43C426.134 156.623 431.45 156.14 436.669 154.981C442.082 153.821 446.915 152.177 451.168 150.051C452.273 149.523 453.341 148.965 454.374 148.377C453.856 149.898 453.349 151.423 452.852 152.95C450.146 161.069 448.116 169.092 446.763 177.018C445.41 184.75 445.41 191.613 446.763 197.605C447.922 203.598 450.823 208.528 455.462 212.394C460.101 216.067 467.061 217.903 476.34 217.903C485.618 217.903 494.511 215.487 503.017 210.654C511.523 205.822 519.352 199.538 526.505 191.806C533.851 183.881 540.423 175.085 546.223 165.419C552.022 155.56 556.758 145.798 560.431 136.132C564.104 126.467 566.617 117.284 567.97 108.585C569.516 99.8856 569.613 92.733 568.26 87.1274C566.714 81.3282 564.104 77.4614 560.431 75.5283C556.758 73.5953 553.085 72.7259 549.412 72.9185C545.739 73.112 542.646 73.9822 540.133 75.5283C537.62 77.0752 536.75 78.4279 537.523 79.5879C538.296 80.7478 538.296 84.711 537.523 91.4767C536.75 98.2431 535.203 106.362 532.884 115.834C530.564 125.113 527.665 135.069 524.185 145.701C520.705 156.14 516.646 165.902 512.006 174.988C507.559 183.881 502.63 191.323 497.217 197.316C491.998 203.115 486.489 206.015 480.689 206.015C474.697 206.015 471.41 203.889 470.83 199.636C470.444 195.383 471.507 189.776 474.02 182.817C476.726 175.858 480.303 168.029 484.749 159.33C489.388 150.63 493.738 141.932 497.798 133.232C501.857 124.34 505.047 115.834 507.367 107.715C509.686 99.5958 509.977 92.733 508.236 87.1274C506.497 81.3282 503.5 77.4614 499.248 75.5283C495.188 73.5953 491.225 72.7259 487.359 72.9185C483.493 73.112 480.206 73.9822 477.499 75.5283C474.987 77.0752 474.406 78.4279 475.76 79.5879C477.307 80.9413 477.403 84.0343 476.05 88.8669C474.89 93.5069 473.054 99.2097 470.54 105.975C468.371 111.648 465.914 117.969 463.169 124.937C462.24 125.243 461.526 125.978 461.027 127.143C460.641 127.723 459.964 129.173 458.997 131.493C458.224 133.619 456.484 135.842 453.778 138.162C451.264 140.482 447.688 142.608 443.049 144.541C438.409 146.475 432.223 147.537 424.491 147.731C426.811 139.999 427.874 134.102 427.68 130.043C427.487 125.983 426.617 123.084 425.07 121.343C423.524 119.41 421.688 118.347 419.561 118.154C417.435 117.961 415.695 117.864 414.342 117.864C410.475 117.864 407.286 119.41 404.773 122.503C402.26 125.596 400.713 129.173 400.134 133.232C399.553 137.292 400.036 141.351 401.583 145.411C403.129 149.278 405.933 152.08 409.992 153.821C407.48 158.847 404.483 164.356 401.003 170.349C397.717 176.148 394.237 181.561 390.565 186.587C387.085 191.613 383.508 195.769 379.836 199.055C376.356 202.148 373.166 203.405 370.267 202.825C366.207 202.052 363.307 199.829 361.567 196.156C359.828 192.29 358.958 187.457 358.958 181.657C359.151 175.858 360.118 169.478 361.857 162.519C363.598 155.367 365.917 148.214 368.816 141.062C371.717 133.715 375.002 126.66 378.676 119.894C382.542 112.934 386.505 106.846 390.565 101.626C392.884 98.7264 395.204 95.9232 397.524 93.2163C400.036 90.3167 402.453 88.0939 404.773 86.5477C407.093 84.8074 409.219 83.938 411.152 83.938C413.279 83.938 415.115 85.2907 416.662 87.9975C415.308 88.9641 414.149 90.124 413.182 91.4767C412.409 92.8301 412.022 94.2799 412.022 95.8261C412.022 98.3395 412.892 100.369 414.632 101.916C416.565 103.462 418.692 104.236 421.011 104.236C424.297 104.236 426.714 102.786 428.261 99.8856C429.421 98.5329 430 96.3093 430 93.2163C429.613 91.0906 429.034 88.8669 428.261 86.5477C427.488 84.0343 426.328 81.8115 424.781 79.8784C423.234 77.7519 421.204 76.0116 418.692 74.6589C416.372 73.112 413.375 72.2426 409.702 72.0491C401.583 71.6622 393.754 72.9185 386.215 75.8189C378.869 78.7184 372.006 82.8743 365.627 88.2873C359.441 93.7003 353.835 100.079 348.809 107.425C345.012 112.829 341.656 118.509 338.742 124.463ZM338.742 124.463C339.239 123.94 339.843 123.577 340.554 123.374C341.908 122.987 343.164 122.987 344.324 123.374C345.484 123.76 346.354 124.533 346.934 125.693C347.707 126.853 347.707 128.11 346.934 129.463C345.387 132.749 343.164 137.292 340.265 143.092C337.365 148.697 333.885 154.787 329.826 161.359C328.716 163.191 327.574 165.03 326.4 166.877C326.79 163.073 327.398 159.204 328.221 155.27C329.96 146.764 332.57 138.452 336.05 130.333C336.901 128.347 337.798 126.391 338.742 124.463ZM24.369 333.021C26.4954 335.728 29.8784 337.178 34.518 337.371C39.3508 337.564 44.8602 336.695 51.0462 334.762C57.4256 332.828 64.1915 329.832 71.3441 325.772C78.4971 321.713 85.5526 316.783 92.5117 310.984C99.8577 304.798 106.624 297.548 112.81 289.236C119.189 280.924 124.795 272.418 129.628 263.719C134.654 255.02 138.811 246.611 142.096 238.492C145.576 230.372 148.09 223.413 149.636 217.613C114.84 228.052 86.8097 239.554 65.5447 252.12C44.4736 264.686 30.5551 278.121 23.7891 292.426C19.9229 300.545 17.9897 308.084 17.9897 315.043C18.183 322.003 20.3095 327.995 24.369 333.021ZM326.056 58.1301C326.056 59.677 324.51 60.4501 321.417 60.4501C318.324 60.4501 314.94 59.7734 311.267 58.4207C307.787 56.8738 304.502 54.5538 301.409 51.461C298.316 48.1748 296.769 44.1151 296.769 39.2824C296.769 37.9292 297.349 36.1893 298.509 34.0629C299.668 31.7431 300.925 29.3267 302.278 26.8137C303.825 24.3006 305.178 21.9808 306.338 19.8544C307.498 17.728 308.078 16.0848 308.078 14.9249C308.078 13.5717 309.528 12.8951 312.427 12.8951C315.327 12.8951 318.516 13.6683 321.996 15.2149C325.669 16.7614 328.955 19.0811 331.855 22.1741C334.755 25.2672 336.205 29.2301 336.205 34.0629C336.205 35.2227 335.625 36.8659 334.465 38.9923C333.498 41.1188 332.338 43.3419 330.986 45.6617L327.506 52.6209C326.539 54.9407 326.056 56.7774 326.056 58.1301ZM638.962 58.1301C638.962 59.677 637.416 60.4501 634.323 60.4501C631.23 60.4501 627.846 59.7734 624.173 58.4207C620.694 56.8738 617.408 54.5538 614.315 51.461C611.222 48.1748 609.675 44.1151 609.675 39.2824C609.675 37.9292 610.255 36.1893 611.414 34.0629C612.574 31.7431 613.832 29.3267 615.184 26.8137C616.731 24.3006 618.084 21.9808 619.244 19.8544C620.404 17.728 620.984 16.0848 620.984 14.9249C620.984 13.5717 622.434 12.8951 625.333 12.8951C628.233 12.8951 631.422 13.6683 634.902 15.2149C638.575 16.7614 641.861 19.0811 644.761 22.1741C647.661 25.2672 649.111 29.2301 649.111 34.0629C649.111 35.2227 648.531 36.8659 647.371 38.9923C646.404 41.1188 645.244 43.3419 643.892 45.6617L640.412 52.6209C639.445 54.9407 638.962 56.7774 638.962 58.1301ZM659.84 129.463C660.613 128.11 660.613 126.853 659.84 125.693C659.26 124.533 658.39 123.76 657.23 123.374C656.07 122.987 654.814 122.987 653.461 123.374C652.107 123.76 651.141 124.727 650.561 126.273C649.401 129.56 647.468 133.715 644.761 138.742C642.055 143.768 638.962 149.084 635.482 154.69C632.003 160.296 628.329 165.902 624.463 171.509C620.597 177.114 616.827 182.237 613.155 186.877C609.481 191.323 606.099 194.996 603.006 197.896C600.106 200.796 597.69 202.342 595.757 202.535C591.31 202.922 589.281 201.182 589.667 197.316C590.247 193.256 592.083 187.94 595.176 181.367C598.463 174.602 602.426 166.966 607.065 158.46C611.898 149.954 616.344 141.351 620.404 132.653C624.657 123.953 627.943 115.641 630.263 107.715C632.582 99.5958 632.872 92.733 631.133 87.1274C629.393 81.3282 626.396 77.4614 622.143 75.5283C618.084 73.5953 614.121 72.7259 610.255 72.9185C606.388 73.112 603.103 73.9822 600.396 75.5283C597.883 77.0752 597.303 78.4279 598.656 79.5879C600.01 80.9413 600.202 83.4547 599.236 87.1274C598.463 90.8 596.917 95.3428 594.597 100.756C592.47 106.169 589.86 112.258 586.767 119.024C583.868 125.596 580.968 132.459 578.069 139.612C575.168 146.764 572.656 153.917 570.529 161.069C568.209 168.222 566.663 174.988 565.89 181.367C565.31 186.587 565.31 191.516 565.89 196.156C566.47 200.602 567.63 204.468 569.369 207.755C571.109 210.848 573.429 213.264 576.328 215.004C579.035 216.744 582.321 217.517 586.188 217.324C590.827 217.324 595.66 215.584 600.686 212.104C605.712 208.625 610.641 204.178 615.474 198.765C620.501 193.352 625.333 187.36 629.973 180.788C634.613 174.215 638.866 167.739 642.732 161.359C646.791 154.787 650.27 148.697 653.171 143.092C656.07 137.292 658.293 132.749 659.84 129.463ZM669.834 40.1522C669.254 38.9924 670.124 38.0258 672.443 37.2526C674.957 36.286 677.856 35.8994 681.143 36.0927C684.429 36.0927 687.522 36.7693 690.422 38.1225C693.322 39.4757 695.061 41.7954 695.641 45.0817C696.801 52.4276 696.221 59.5799 693.901 66.5398C691.775 73.3055 688.779 79.2017 684.913 84.2278C681.239 89.2539 677.083 92.9265 672.443 95.2465C667.998 97.5664 663.841 97.7599 659.975 95.8261C658.042 94.8595 658.138 92.8301 660.265 89.7371C662.585 86.4506 665.001 82.3911 667.514 77.5585C670.221 72.5324 672.154 66.9259 673.314 60.7399C674.667 54.3611 673.507 47.4981 669.834 40.1522ZM739.006 211.234L738.717 211.524C734.463 213.651 730.404 215.293 726.538 216.453C722.671 217.613 719.385 218.194 716.678 218.194C708.946 218.194 703.05 216.261 698.99 212.394C694.737 208.334 691.934 203.598 690.581 198.186C689.228 192.773 689.035 187.36 690.001 181.948C690.968 176.535 692.804 172.379 695.51 169.478C699.377 165.419 702.857 162.713 705.95 161.359C709.043 160.007 711.652 159.523 713.779 159.909C715.905 160.103 717.838 160.973 719.578 162.519C721.512 164.066 722.478 165.999 722.478 168.318C722.478 170.832 721.512 172.958 719.578 174.698C717.838 176.438 715.809 177.308 713.489 177.308C711.749 177.308 710.106 176.824 708.559 175.858C707.013 174.698 705.95 173.248 705.37 171.509C702.856 174.408 701.117 177.888 700.15 181.948C699.184 186.007 698.99 189.873 699.57 193.546C700.15 197.219 701.697 200.409 704.21 203.115C706.53 205.628 709.816 206.982 714.069 207.174C715.616 207.174 717.838 206.498 720.738 205.145C723.637 203.598 726.538 201.182 729.437 197.896C732.53 194.416 735.237 190.067 737.557 184.847C739.877 179.434 741.229 172.958 741.616 165.419C742.196 157.88 741.423 149.084 739.296 139.032C737.17 128.979 733.11 117.671 727.117 105.105C725.184 108.779 722.962 112.838 720.448 117.284C718.128 121.537 716.002 125.596 714.069 129.463C713.102 130.816 711.942 131.589 710.589 131.782C709.236 131.976 707.98 131.88 706.82 131.493C705.66 130.913 704.887 130.139 704.5 129.173C703.92 128.013 704.016 126.756 704.79 125.403C706.336 122.117 707.786 119.218 709.14 116.704C710.492 113.998 711.846 111.485 713.199 109.165C714.552 106.846 715.809 104.526 716.968 102.206C718.128 99.6929 719.385 97.0832 720.738 94.3763C718.611 91.2832 716.968 87.9004 715.809 84.2278C714.649 80.5544 714.069 76.6883 714.069 72.6287C714.069 70.8891 714.358 68.7626 714.939 66.2492C715.712 63.5431 716.872 60.9333 718.419 58.4207C720.158 55.7138 722.478 53.491 725.378 51.7511C728.277 49.8179 732.047 48.8513 736.686 48.8513C741.519 48.8513 744.999 49.9146 747.125 52.041C749.445 54.1677 750.702 56.8738 750.895 60.1603C751.089 63.4468 750.412 67.1194 748.865 71.1789C747.319 75.045 745.289 78.9111 742.776 82.778L741.906 84.5176C749.445 93.2163 755.438 101.529 759.884 109.455C764.524 117.381 768.003 124.92 770.322 132.072C772.642 139.225 773.898 145.894 774.091 152.08C774.476 158.266 773.998 164.066 772.642 169.478C779.024 162.133 784.727 154.883 789.753 147.731C794.778 140.578 798.932 133.813 802.223 127.433C802.801 126.08 803.672 125.21 804.829 124.823C805.992 124.244 807.441 124.436 809.176 125.403C810.532 126.177 811.303 127.24 811.496 128.593C811.889 129.946 811.788 131.203 811.21 132.363C806.57 141.835 801.16 150.728 794.971 159.04C788.974 167.352 782.307 175.664 774.962 183.977C769.744 189.776 764.234 194.996 758.434 199.636C752.828 204.275 746.449 208.142 739.296 211.234H739.006ZM864.092 143.515C865.356 144.505 866.165 145.955 866.358 147.546L870.427 181.476C870.828 184.789 868.462 187.796 865.148 188.193C861.841 188.591 858.827 186.227 858.434 182.914L856.161 163.964C814.478 222.674 766.938 247.905 714.22 256.856C668.53 264.615 618.922 260.093 566.68 255.332L566.664 255.331H566.663H566.662C557.694 254.513 548.647 253.689 539.529 252.918C476.924 247.628 410.134 244.732 339.058 262.692C288.487 275.472 235.548 298.866 180.375 339.771L187.945 348.73C190.098 351.278 189.778 355.089 187.229 357.243C184.681 359.396 180.868 359.076 178.716 356.527L170.734 347.08C167.742 349.399 164.745 351.77 161.741 354.194L168.878 362.641C171.031 365.189 170.711 369.001 168.162 371.154C165.614 373.308 161.802 372.987 159.649 370.438L152.413 361.874C139.243 372.938 125.95 385.036 112.537 398.261C110.161 400.603 106.337 400.576 103.994 398.201C101.651 395.824 101.679 392 104.054 389.658C117.683 376.221 131.204 363.913 144.615 352.645L136.256 342.751C134.103 340.203 134.424 336.392 136.972 334.238C139.521 332.085 143.332 332.405 145.485 334.954L153.941 344.962C156.943 342.538 159.939 340.165 162.93 337.844L155.323 328.84C153.17 326.292 153.491 322.48 156.039 320.327C158.587 318.173 162.399 318.494 164.552 321.043L172.563 330.523C229.153 288.449 283.72 264.215 336.098 250.978C409.209 232.503 477.667 235.565 540.546 240.879C549.855 241.666 559.024 242.499 568.058 243.32H568.06C620.406 248.075 668.195 252.417 712.198 244.945C762.068 236.477 807.033 212.772 847.027 155.949L827.15 158.333C823.843 158.73 820.829 156.366 820.436 153.054C820.035 149.742 822.402 146.733 825.716 146.337L859.644 142.267C861.232 142.076 862.835 142.525 864.092 143.515Z" fill="url(#paint0_linear)"/>
<defs>
<linearGradient id="paint0_linear" x1="-26.9763" y1="481.72" x2="824.705" y2="88.6365" gradientUnits="userSpaceOnUse">
<stop stop-color="#FB9958"/>
<stop offset="1" stop-color="#F6457C"/>
</linearGradient>
</defs>
</svg>
